# xmcd
#
# Track frame offsets:
#  150
#  20017
#  38199
#  52192
#  66320
#  81812
#  97282
#  113552
#  132637
#  148625
#  166143
#  179129
#  196970
#  213978
#  230651
#  244689
#  260508
#  274417
#  288747
#  306584
#
# Disc length: 4346 seconds
#
# Revision: 0
# Processed by: cddbd v1.5.2PL0 Copyright (c) Steve Scherf et al.
# Submitted via: Collectorz.com_Music_Collector 6.11
#
DISCID=4710f814
DTITLE=Various Artist - A Bailar [CD2)
DYEAR=1900
DGENRE=
TTITLE0=Cantores De Hispalis - Tocala Tocala
TTITLE1=El Pali - Tuvo Sevilla
TTITLE2=La Canastera - No Me Conviene 
TTITLE3=Los Marismeños - Sevillanas De La Reina
TTITLE4=Amigos De Gines - Que En Sevilla Hay Que Morir
TTITLE5=Los Romeros De La Puebla - Tus Ojos Verdes
TTITLE6=Los Hermanos Reyes - Triana Llora De Pena 
TTITLE7=Cantores De Hispalis - Cantare
TTITLE8=Los Marismeños - Mi Orgullo Ser Marismeno
TTITLE9=Los Del Guadalquivir - Adivina Adivinanza
TTITLE10=Amigos De Gines - Suena La Margarita
TTITLE11=Requiebros - A Esa Mujer
TTITLE12=Los Hermanos Reyes - Amores De Nino
TTITLE13=Los Hispalenses - Candela Candela
TTITLE14=Bayunco Y Sal - Me Lo Dijo Mi Mama
TTITLE15=Los Del Guadalquivir - De Fiesta 
TTITLE16=Brumas - Como Baila La Nina
TTITLE17=Manuel Linares - Asomate
TTITLE18=Cantores De Hispalis - Que No Nos Falte De Na
TTITLE19=Romero San Juan - Ay Carretero
EXTD=
EXTT0=
EXTT1=
EXTT2=
EXTT3=
EXTT4=
EXTT5=
EXTT6=
EXTT7=
EXTT8=
EXTT9=
EXTT10=
EXTT11=
EXTT12=
EXTT13=
EXTT14=
EXTT15=
EXTT16=
EXTT17=
EXTT18=
EXTT19=
PLAYORDER=
